# xmcd CD database file
#
# Track frame offsets:
#	150
#	33569
#	71255
#	92507
#	123246
#	139326
#	168182
#	194217
#	231167
#	265564
#
# Disc length: 3885 seconds
#
# Revision: 0
# Processed by: cddbd v1.5.2PL0 Copyright (c) Steve Scherf et al.
# Submitted via: CDex 1.51
#
DISCID=860f2b0a
DTITLE=Magic Carpet - In Flight
DYEAR=2006
DGENRE=Jazz
TTITLE0=Mwashah
TTITLE1=Allamuni
TTITLE2=Ben N'Har Prat
TTITLE3=A Night in Tunisia
TTITLE4=Divinity
TTITLE5=Erma gene
TTITLE6=Yekermosew (Sheba)
TTITLE7=Fidel Sclassic I
TTITLE8=Kenne
TTITLE9=Meroe
EXTD=YEAR: 2006
EXTT0=
EXTT1=
EXTT2=
EXTT3=
EXTT4=
EXTT5=
EXTT6=
EXTT7=
EXTT8=
EXTT9=
PLAYORDER=
